HIERARCHY
ROOT Hips
{
	OFFSET -14.64140 90.27770 -84.91600
	CHANNELS 6 Xposition Yposition Zposition Zrotation Xrotation Yrotation
	JOINT Spine
	{
		OFFSET 0.00000 13.20850 -1.60436
		CHANNELS 3 Zrotation Xrotation Yrotation
		JOINT Spine1
		{
			OFFSET 0.00000 8.61716 0.00000
			CHANNELS 3 Zrotation Xrotation Yrotation
			JOINT Spine2
			{
				OFFSET 0.00000 8.61717 0.00000
				CHANNELS 3 Zrotation Xrotation Yrotation
				JOINT Spine3
				{
					OFFSET 0.00000 8.61717 0.00000
					CHANNELS 3 Zrotation Xrotation Yrotation
					JOINT Neck
					{
						OFFSET 0.00000 11.07920 1.10792
						CHANNELS 3 Zrotation Xrotation Yrotation
						JOINT Neck1
						{
							OFFSET 0.00000 7.08032 0.00000
							CHANNELS 3 Zrotation Xrotation Yrotation
							JOINT Head
							{
								OFFSET 0.00000 7.08031 0.00000
								CHANNELS 3 Zrotation Xrotation Yrotation
								End site
								{
									OFFSET 0.00000 0.00000 0.00000
								}
							}
						}
					}
					JOINT RightShoulder
					{
						OFFSET -0.01000 7.91373 5.19711
						CHANNELS 3 Zrotation Xrotation Yrotation
						JOINT RightArm
						{
							OFFSET -18.41580 0.00000 0.00000
							CHANNELS 3 Zrotation Xrotation Yrotation
							JOINT RightForeArm
							{
								OFFSET -29.11090 0.00000 0.00000
								CHANNELS 3 Zrotation Xrotation Yrotation
								JOINT RightHand
								{
									OFFSET -24.65040 0.00000 0.00000
									CHANNELS 3 Zrotation Xrotation Yrotation
									JOINT RightHandThumb1
									{
										OFFSET -5.35114 -0.85590 3.97906
										CHANNELS 3 Zrotation Xrotation Yrotation
										JOINT RightHandThumb2
										{
											OFFSET -4.52789 0.00000 0.00000
											CHANNELS 3 Zrotation Xrotation Yrotation
											JOINT RightHandThumb3
											{
												OFFSET -2.46976 0.00000 0.00000
												CHANNELS 3 Zrotation Xrotation Yrotation
												End site
												{
													OFFSET 0.00000 0.00000 0.00000
												}
											}
										}
									}
									JOINT RightHandIndex1
									{
										OFFSET -14.26970 0.00000 2.88139
										CHANNELS 3 Zrotation Xrotation Yrotation
										JOINT RightHandIndex2
										{
											OFFSET -5.48836 0.00000 0.00000
											CHANNELS 3 Zrotation Xrotation Yrotation
											JOINT RightHandIndex3
											{
												OFFSET -3.01859 0.00000 0.00000
												CHANNELS 3 Zrotation Xrotation Yrotation
												End site
												{
													OFFSET 0.00000 0.00000 0.00000
												}
											}
										}
									}
									JOINT RightHandMiddle1
									{
										OFFSET -14.26970 0.00000 -0.09147
										CHANNELS 3 Zrotation Xrotation Yrotation
										JOINT RightHandMiddle2
										{
											OFFSET -6.17441 0.00000 0.00000
											CHANNELS 3 Zrotation Xrotation Yrotation
											JOINT RightHandMiddle3
											{
												OFFSET -3.56743 0.00000 0.00000
												CHANNELS 3 Zrotation Xrotation Yrotation
												End site
												{
													OFFSET 0.00000 0.00000 0.00000
												}
											}
										}
									}
									JOINT RightHandRing1
									{
										OFFSET -12.69180 0.00000 -3.06433
										CHANNELS 3 Zrotation Xrotation Yrotation
										JOINT RightHandRing2
										{
											OFFSET -5.62556 0.00000 0.00000
											CHANNELS 3 Zrotation Xrotation Yrotation
											JOINT RightHandRing3
											{
												OFFSET -3.56744 0.00000 0.00000
												CHANNELS 3 Zrotation Xrotation Yrotation
												End site
												{
													OFFSET 0.00000 0.00000 0.00000
												}
											}
										}
									}
									JOINT RightHandPinky1
									{
										OFFSET -11.11390 0.00000 -6.03719
										CHANNELS 3 Zrotation Xrotation Yrotation
										JOINT RightHandPinky2
										{
											OFFSET -4.52789 0.00000 0.00000
											CHANNELS 3 Zrotation Xrotation Yrotation
											JOINT RightHandPinky3
											{
												OFFSET -2.46976 0.00000 0.00000
												CHANNELS 3 Zrotation Xrotation Yrotation
												End site
												{
													OFFSET 0.00000 0.00000 0.00000
												}
											}
										}
									}
								}
							}
						}
					}
					JOINT LeftShoulder
					{
						OFFSET 0.01000 7.91373 5.19711
						CHANNELS 3 Zrotation Xrotation Yrotation
						JOINT LeftArm
						{
							OFFSET 18.41580 0.00000 0.00000
							CHANNELS 3 Zrotation Xrotation Yrotation
							JOINT LeftForeArm
							{
								OFFSET 29.11090 0.00000 0.00000
								CHANNELS 3 Zrotation Xrotation Yrotation
								JOINT LeftHand
								{
									OFFSET 24.65040 0.00000 0.00000
									CHANNELS 3 Zrotation Xrotation Yrotation
									JOINT LeftHandThumb1
									{
										OFFSET 5.35114 -0.85590 3.97906
										CHANNELS 3 Zrotation Xrotation Yrotation
										JOINT LeftHandThumb2
										{
											OFFSET 4.52789 0.00000 0.00000
											CHANNELS 3 Zrotation Xrotation Yrotation
											JOINT LeftHandThumb3
											{
												OFFSET 2.46977 0.00000 0.00000
												CHANNELS 3 Zrotation Xrotation Yrotation
												End site
												{
													OFFSET 0.00000 0.00000 0.00000
												}
											}
										}
									}
									JOINT LeftHandIndex1
									{
										OFFSET 14.26970 0.00000 2.88139
										CHANNELS 3 Zrotation Xrotation Yrotation
										JOINT LeftHandIndex2
										{
											OFFSET 5.48836 0.00000 0.00000
											CHANNELS 3 Zrotation Xrotation Yrotation
											JOINT LeftHandIndex3
											{
												OFFSET 3.01859 0.00000 0.00000
												CHANNELS 3 Zrotation Xrotation Yrotation
												End site
												{
													OFFSET 0.00000 0.00000 0.00000
												}
											}
										}
									}
									JOINT LeftHandMiddle1
									{
										OFFSET 14.26970 0.00000 -0.09147
										CHANNELS 3 Zrotation Xrotation Yrotation
										JOINT LeftHandMiddle2
										{
											OFFSET 6.17440 0.00000 0.00000
											CHANNELS 3 Zrotation Xrotation Yrotation
											JOINT LeftHandMiddle3
											{
												OFFSET 3.56744 0.00000 0.00000
												CHANNELS 3 Zrotation Xrotation Yrotation
												End site
												{
													OFFSET 0.00000 0.00000 0.00000
												}
											}
										}
									}
									JOINT LeftHandRing1
									{
										OFFSET 12.69180 0.00000 -3.06433
										CHANNELS 3 Zrotation Xrotation Yrotation
										JOINT LeftHandRing2
										{
											OFFSET 5.62556 0.00000 0.00000
											CHANNELS 3 Zrotation Xrotation Yrotation
											JOINT LeftHandRing3
											{
												OFFSET 3.56744 0.00000 0.00000
												CHANNELS 3 Zrotation Xrotation Yrotation
												End site
												{
													OFFSET 0.00000 0.00000 0.00000
												}
											}
										}
									}
									JOINT LeftHandPinky1
									{
										OFFSET 11.11390 0.00000 -6.03719
										CHANNELS 3 Zrotation Xrotation Yrotation
										JOINT LeftHandPinky2
										{
											OFFSET 4.52789 0.00000 0.00000
											CHANNELS 3 Zrotation Xrotation Yrotation
											JOINT LeftHandPinky3
											{
												OFFSET 2.46976 0.00000 0.00000
												CHANNELS 3 Zrotation Xrotation Yrotation
												End site
												{
													OFFSET 0.00000 0.00000 0.00000
												}
											}
										}
									}
								}
							}
						}
					}
					JOINT pCube4
					{
						OFFSET 0.00000 10.91090 1.10792
						CHANNELS 3 Zrotation Xrotation Yrotation
						End site
						{
							OFFSET 0.00000 0.00000 0.00000
						}
					}
				}
			}
		}
	}
	JOINT RightUpLeg
	{
		OFFSET -9.98441 0.00000 0.00000
		CHANNELS 3 Zrotation Xrotation Yrotation
		JOINT RightLeg
		{
			OFFSET 0.00000 -42.11790 0.00000
			CHANNELS 3 Zrotation Xrotation Yrotation
			JOINT RightFoot
			{
				OFFSET 0.00000 -45.00020 -0.00001
				CHANNELS 3 Zrotation Xrotation Yrotation
				JOINT RightForeFoot
				{
					OFFSET 0.00000 -3.74820 0.00000
					CHANNELS 3 Zrotation Xrotation Yrotation
					JOINT RightToeBase
					{
						OFFSET 0.00000 0.06325 14.43120
						CHANNELS 3 Zrotation Xrotation Yrotation
						End site
						{
							OFFSET 0.00000 0.00000 0.00000
						}
					}
				}
			}
		}
	}
	JOINT LeftUpLeg
	{
		OFFSET 9.98441 0.00000 0.00000
		CHANNELS 3 Zrotation Xrotation Yrotation
		JOINT LeftLeg
		{
			OFFSET 0.00000 -42.11800 0.00000
			CHANNELS 3 Zrotation Xrotation Yrotation
			JOINT LeftFoot
			{
				OFFSET 0.00000 -45.00070 0.00000
				CHANNELS 3 Zrotation Xrotation Yrotation
				JOINT LeftForeFoot
				{
					OFFSET 0.00000 -3.74824 0.00000
					CHANNELS 3 Zrotation Xrotation Yrotation
					JOINT LeftToeBase
					{
						OFFSET 0.00000 0.06325 14.43110
						CHANNELS 3 Zrotation Xrotation Yrotation
						End site
						{
							OFFSET 0.00000 0.00000 0.00000
						}
					}
				}
			}
		}
	}
}
MOTION
Frames: 4
Frame Time: 0.050000
0.0 0.0 0.0 0.0 0.0 0.0 -4.735211029183214 0.8346464437875897 -0.47424414165641415 -0.9541773966647576 3.3245741760985767 0.3951193053841815 -1.2008569397374578 -1.8145246956498664 -1.2037161749007406 -0.6273226593287446 0.2699462261582628 -0.8797480436234275 -0.8075175069806391 12.300885492871958 1.0969761023720075 -0.06307255422029497 1.0296189306210792 0.22939007515026058 -0.4344899866257979 -12.389986439897086 0.09669208406274124 -0.6667038180836635 1.031825503162913 -12.596098432770962 68.28107176004013 14.67116060085741 5.784302541822272 29.073334301128938 6.8629239074870565 84.45328342656578 23.994557360313756 -0.2985219878184142 -5.768948741545547 4.52871 -0.12703 -1.59312 -4.64595e-06 9.01534e-06 -56.2342 8.23465e-06 -9.55045e-07 -56.2342 -38.7697 2.616e-06 -3.03728e-06 1.51694e-05 2.54582e-06 3.19778e-06 -3.36779e-06 6.40269e-06 -1.74067e-06 -36.6938 -3.44578e-06 4.82161e-06 1.03628e-05 2.25643e-06 -1.00237e-06 -1.59028e-15 3.18055e-15 1.90833e-14 -19.7583 1.99729e-06 9.82298e-07 1.19088e-05 -1.70535e-06 -1.47446e-06 -7.95139e-16 3.57812e-15 3.18055e-15 24.0542 -1.29415e-06 -2.03572e-07 28.8651 4.69993e-06 -2.49464e-06 28.8651 4.67541e-06 2.50252e-06 4.250676731728327 1.3959802642841552 12.84303340507783 -60.190134169344724 24.862284212963075 -21.65311120835178 2.428468153927145 13.782842300098666 -67.06920504853773 -11.836815670608948 8.573339992345284 -6.022852961939218 -0.474211 0.0677175 -8.12381 -7.57701e-06 -7.52602e-07 44.5675 -2.34874e-06 -9.76287e-07 44.5675 12.4601 -8.06117e-07 4.96022e-06 -1.98259e-05 -5.83324e-07 -1.40447e-07 -3.18055e-15 1.59028e-15 -9.54166e-15 11.1059 -5.13129e-07 -3.38467e-06 3.12111e-07 1.50825e-07 1.16352e-06 5.56875e-08 -1.53149e-07 -1.37717e-07 4.77241 1.48801e-06 -1.13665e-06 -2.79682e-07 7.26536e-07 7.29834e-07 -1.95777e-07 5.08575e-07 5.10883e-07 -5.60077 7.82297e-07 -2.03231e-07 -6.72092 -3.47366e-06 4.68464e-06 -6.72092 -1.30631e-08 -7.87263e-07 -1.19271e-15 1.09925e-15 -3.18055e-15 8.04465 3.49397 -19.2195 -2.21424e-05 10.395 0.0142586 -5.62103 -15.6599 3.19225 3.97569e-16 7.95139e-16 -1.59028e-15 1.81331e-08 4.69756 -4.30096e-07 12.4594 -8.23857 6.88324 1.34357e-05 46.3794 0.00174233 -4.32522 -14.7485 -3.83531 3.18055e-15 -3.18055e-15 9.54166e-15 1.35867e-07 -10.745 -2.59575e-06
0.0 0.0 0.0 0.0 0.0 0.0 -4.660199510116001 0.8368000534384374 -0.4897356038867096 -0.9466557786986448 3.3172892751091916 0.3904849781911888 -1.1966411157608032 -1.810510472439448 -1.344576733035915 -0.533060287701407 0.2812388116641887 -0.9012205272077235 -0.7424947497377757 12.204307026541588 0.9359174674218796 -0.059449703349366036 0.9840178312072632 -0.04319663587661841 -0.3866560317947957 -12.45577282165984 0.0742503388574456 -0.6222101546348408 1.013015711697494 -12.602844033064084 68.23645398206143 14.91311178180525 5.430161876833581 29.407152072033522 7.219468908631196 83.29446193244831 24.252067687762985 -0.28797979422945746 -5.725356138295798 4.52871 -0.12703 -1.59312 -4.64595e-06 9.01534e-06 -56.2342 8.23465e-06 -9.55045e-07 -56.2342 -38.7697 2.616e-06 -3.03728e-06 1.51694e-05 2.54582e-06 3.19778e-06 -3.36779e-06 6.40269e-06 -1.74067e-06 -36.6938 -3.44578e-06 4.82161e-06 1.03628e-05 2.25643e-06 -1.00237e-06 -1.59028e-15 3.18055e-15 1.90833e-14 -19.7583 1.99729e-06 9.82298e-07 1.19088e-05 -1.70535e-06 -1.47446e-06 -7.95139e-16 3.57812e-15 3.18055e-15 24.0542 -1.29415e-06 -2.03572e-07 28.8651 4.69993e-06 -2.49464e-06 28.8651 4.67541e-06 2.50252e-06 4.137609366053936 1.375750753035192 12.670077606720458 -60.17732597106318 25.470411279936613 -21.471319788780896 2.266771722365411 13.434861628765242 -66.15118740645076 -11.838795692923435 8.570783504097376 -5.963887392312353 -0.474211 0.0677175 -8.12381 -7.57701e-06 -7.52602e-07 44.5675 -2.34874e-06 -9.76287e-07 44.5675 12.4601 -8.06117e-07 4.96022e-06 -1.98259e-05 -5.83324e-07 -1.40447e-07 -3.18055e-15 1.59028e-15 -9.54166e-15 11.1059 -5.13129e-07 -3.38467e-06 3.12111e-07 1.50825e-07 1.16352e-06 5.56875e-08 -1.53149e-07 -1.37717e-07 4.77241 1.48801e-06 -1.13665e-06 -2.79682e-07 7.26536e-07 7.29834e-07 -1.95777e-07 5.08575e-07 5.10883e-07 -5.60077 7.82297e-07 -2.03231e-07 -6.72092 -3.47366e-06 4.68464e-06 -6.72092 -1.30631e-08 -7.87263e-07 -1.19271e-15 1.09925e-15 -3.18055e-15 8.04465 3.49397 -19.2195 -2.21424e-05 10.395 0.0142586 -5.62103 -15.6599 3.19225 3.97569e-16 7.95139e-16 -1.59028e-15 1.81331e-08 4.69756 -4.30096e-07 12.4594 -8.23857 6.88324 1.34357e-05 46.3794 0.00174233 -4.32522 -14.7485 -3.83531 3.18055e-15 -3.18055e-15 9.54166e-15 1.35867e-07 -10.745 -2.59575e-06
0.0 0.0 0.0 0.0 0.0 0.0 -4.574487702442624 0.7520916834358496 -0.5060022018706049 -0.9375731391197977 3.311053762315398 0.38570852788879584 -1.1919675448769356 -1.8327722091139078 -1.4607259750243724 -0.46267194093023795 0.2829862636001058 -0.9169581919764299 -0.691268992767538 12.191058763107268 0.8365277607981778 -0.03917291906239767 0.9927748103670301 -0.14965403226498641 -0.344896725711484 -12.442053333311955 0.06435645389349536 -0.6549894473501285 1.0138877674211684 -12.631965550331156 68.32309662969502 14.91372160510911 5.198104733783936 30.081465309244376 7.487010699009154 82.30412139436609 24.424719772625696 -0.2789072678811867 -5.6573667049796095 4.52871 -0.12703 -1.59312 -4.64595e-06 9.01534e-06 -56.2342 8.23465e-06 -9.55045e-07 -56.2342 -38.7697 2.616e-06 -3.03728e-06 1.51694e-05 2.54582e-06 3.19778e-06 -3.36779e-06 6.40269e-06 -1.74067e-06 -36.6938 -3.44578e-06 4.82161e-06 1.03628e-05 2.25643e-06 -1.00237e-06 -1.59028e-15 3.18055e-15 1.90833e-14 -19.7583 1.99729e-06 9.82298e-07 1.19088e-05 -1.70535e-06 -1.47446e-06 -7.95139e-16 3.57812e-15 3.18055e-15 24.0542 -1.29415e-06 -2.03572e-07 28.8651 4.69993e-06 -2.49464e-06 28.8651 4.67541e-06 2.50252e-06 4.139135826487791 1.3738184699713536 12.548099783316252 -60.245765038141265 25.853444211022552 -21.37551374581152 1.6910270656227921 13.000198144174162 -65.40839844114487 -11.815582661311309 8.61596607252161 -5.9620334613923225 -0.474211 0.0677175 -8.12381 -7.57701e-06 -7.52602e-07 44.5675 -2.34874e-06 -9.76287e-07 44.5675 12.4601 -8.06117e-07 4.96022e-06 -1.98259e-05 -5.83324e-07 -1.40447e-07 -3.18055e-15 1.59028e-15 -9.54166e-15 11.1059 -5.13129e-07 -3.38467e-06 3.12111e-07 1.50825e-07 1.16352e-06 5.56875e-08 -1.53149e-07 -1.37717e-07 4.77241 1.48801e-06 -1.13665e-06 -2.79682e-07 7.26536e-07 7.29834e-07 -1.95777e-07 5.08575e-07 5.10883e-07 -5.60077 7.82297e-07 -2.03231e-07 -6.72092 -3.47366e-06 4.68464e-06 -6.72092 -1.30631e-08 -7.87263e-07 -1.19271e-15 1.09925e-15 -3.18055e-15 8.04465 3.49397 -19.2195 -2.21424e-05 10.395 0.0142586 -5.62103 -15.6599 3.19225 3.97569e-16 7.95139e-16 -1.59028e-15 1.81331e-08 4.69756 -4.30096e-07 12.4594 -8.23857 6.88324 1.34357e-05 46.3794 0.00174233 -4.32522 -14.7485 -3.83531 3.18055e-15 -3.18055e-15 9.54166e-15 1.35867e-07 -10.745 -2.59575e-06
0.0 0.0 0.0 0.0 0.0 0.0 -4.482821837653769 0.6111723379154148 -0.5224975919717612 -0.9281539542066376 3.308098974068454 0.3811017039427066 -1.1878225183064839 -1.8735057354920388 -1.5500392197327495 -0.41144562924797545 0.27887996538818033 -0.9272082669829931 -0.6503519243737508 12.246483032919492 0.7734043050342563 -0.008012683304398093 1.032666894298538 -0.16438473330814704 -0.30436666212678554 -12.390442715151929 0.06114043200725304 -0.7592570388048099 1.0315991269758205 -12.67540849657652 68.47216891274842 14.816724909589562 5.088552769706596 30.878062080293258 7.681275825170202 81.40345907770273 24.544465648347924 -0.2712606183309395 -5.573919940876467 4.52871 -0.12703 -1.59312 -4.64595e-06 9.01534e-06 -56.2342 8.23465e-06 -9.55045e-07 -56.2342 -38.7697 2.616e-06 -3.03728e-06 1.51694e-05 2.54582e-06 3.19778e-06 -3.36779e-06 6.40269e-06 -1.74067e-06 -36.6938 -3.44578e-06 4.82161e-06 1.03628e-05 2.25643e-06 -1.00237e-06 -1.59028e-15 3.18055e-15 1.90833e-14 -19.7583 1.99729e-06 9.82298e-07 1.19088e-05 -1.70535e-06 -1.47446e-06 -7.95139e-16 3.57812e-15 3.18055e-15 24.0542 -1.29415e-06 -2.03572e-07 28.8651 4.69993e-06 -2.49464e-06 28.8651 4.67541e-06 2.50252e-06 4.237041448113125 1.3873608260709094 12.471418497298993 -60.36010078055028 26.075158340191564 -21.381223619645862 0.8483337172455264 12.526041144648921 -64.83906033842571 -11.770111487994365 8.696333098775622 -6.002870118642459 -0.474211 0.0677175 -8.12381 -7.57701e-06 -7.52602e-07 44.5675 -2.34874e-06 -9.76287e-07 44.5675 12.4601 -8.06117e-07 4.96022e-06 -1.98259e-05 -5.83324e-07 -1.40447e-07 -3.18055e-15 1.59028e-15 -9.54166e-15 11.1059 -5.13129e-07 -3.38467e-06 3.12111e-07 1.50825e-07 1.16352e-06 5.56875e-08 -1.53149e-07 -1.37717e-07 4.77241 1.48801e-06 -1.13665e-06 -2.79682e-07 7.26536e-07 7.29834e-07 -1.95777e-07 5.08575e-07 5.10883e-07 -5.60077 7.82297e-07 -2.03231e-07 -6.72092 -3.47366e-06 4.68464e-06 -6.72092 -1.30631e-08 -7.87263e-07 -1.19271e-15 1.09925e-15 -3.18055e-15 8.04465 3.49397 -19.2195 -2.21424e-05 10.395 0.0142586 -5.62103 -15.6599 3.19225 3.97569e-16 7.95139e-16 -1.59028e-15 1.81331e-08 4.69756 -4.30096e-07 12.4594 -8.23857 6.88324 1.34357e-05 46.3794 0.00174233 -4.32522 -14.7485 -3.83531 3.18055e-15 -3.18055e-15 9.54166e-15 1.35867e-07 -10.745 -2.59575e-06
